<svg width="859" height="122" viewBox="0 0 859 122" fill="none" xmlns="http://www.w3.org/2000/svg">
<path d="M30.7 97.6C25.5 97.6 20.5 96.7667 15.7 95.1C10.9667 93.4333 7.3 91.2333 4.7 88.5L7.6 82.8C10.1333 85.3333 13.5 87.4 17.7 89C21.9 90.5333 26.2333 91.3 30.7 91.3C36.9667 91.3 41.6667 90.1667 44.8 87.9C47.9333 85.5667 49.5 82.5667 49.5 78.9C49.5 76.1 48.6333 73.8667 46.9 72.2C45.2333 70.5333 43.1667 69.2667 40.7 68.4C38.2333 67.4667 34.8 66.4667 30.4 65.4C25.1333 64.0667 20.9333 62.8 17.8 61.6C14.6667 60.3333 11.9667 58.4333 9.7 55.9C7.5 53.3667 6.4 49.9333 6.4 45.6C6.4 42.0667 7.33333 38.8667 9.2 36C11.0667 33.0667 13.9333 30.7333 17.8 29C21.6667 27.2667 26.4667 26.4 32.2 26.4C36.2 26.4 40.1 26.9667 43.9 28.1C47.7667 29.1667 51.1 30.6667 53.9 32.6L51.4 38.5C48.4667 36.5667 45.3333 35.1333 42 34.2C38.6667 33.2 35.4 32.7 32.2 32.7C26.0667 32.7 21.4333 33.9 18.3 36.3C15.2333 38.6333 13.7 41.6667 13.7 45.4C13.7 48.2 14.5333 50.4667 16.2 52.2C17.9333 53.8667 20.0667 55.1667 22.6 56.1C25.2 56.9667 28.6667 57.9333 33 59C38.1333 60.2667 42.2667 61.5333 45.4 62.8C48.6 64 51.3 65.8667 53.5 68.4C55.7 70.8667 56.8 74.2333 56.8 78.5C56.8 82.0333 55.8333 85.2667 53.9 88.2C52.0333 91.0667 49.1333 93.3667 45.2 95.1C41.2667 96.7667 36.4333 97.6 30.7 97.6ZM98.5234 44C103.457 44 107.923 45.1333 111.923 47.4C115.923 49.6 119.057 52.7333 121.323 56.8C123.59 60.8667 124.723 65.5 124.723 70.7C124.723 75.9667 123.59 80.6333 121.323 84.7C119.057 88.7667 115.923 91.9333 111.923 94.2C107.99 96.4 103.523 97.5 98.5234 97.5C94.2568 97.5 90.3901 96.6333 86.9234 94.9C83.5234 93.1 80.7234 90.5 78.5234 87.1V116.4H71.4234V44.4H78.2234V54.8C80.3568 51.3333 83.1568 48.6667 86.6234 46.8C90.1568 44.9333 94.1234 44 98.5234 44ZM98.0234 91.2C101.69 91.2 105.023 90.3667 108.023 88.7C111.023 86.9667 113.357 84.5333 115.023 81.4C116.757 78.2667 117.623 74.7 117.623 70.7C117.623 66.7 116.757 63.1667 115.023 60.1C113.357 56.9667 111.023 54.5333 108.023 52.8C105.023 51.0667 101.69 50.2 98.0234 50.2C94.2901 50.2 90.9234 51.0667 87.9234 52.8C84.9901 54.5333 82.6568 56.9667 80.9234 60.1C79.2568 63.1667 78.4234 66.7 78.4234 70.7C78.4234 74.7 79.2568 78.2667 80.9234 81.4C82.6568 84.5333 84.9901 86.9667 87.9234 88.7C90.9234 90.3667 94.2901 91.2 98.0234 91.2ZM160.697 97.5C155.63 97.5 151.064 96.3667 146.997 94.1C142.93 91.7667 139.73 88.5667 137.397 84.5C135.064 80.4333 133.897 75.8333 133.897 70.7C133.897 65.5667 135.064 60.9667 137.397 56.9C139.73 52.8333 142.93 49.6667 146.997 47.4C151.064 45.1333 155.63 44 160.697 44C165.764 44 170.33 45.1333 174.397 47.4C178.464 49.6667 181.63 52.8333 183.897 56.9C186.23 60.9667 187.397 65.5667 187.397 70.7C187.397 75.8333 186.23 80.4333 183.897 84.5C181.63 88.5667 178.464 91.7667 174.397 94.1C170.33 96.3667 165.764 97.5 160.697 97.5ZM160.697 91.2C164.43 91.2 167.764 90.3667 170.697 88.7C173.697 86.9667 176.03 84.5333 177.697 81.4C179.364 78.2667 180.197 74.7 180.197 70.7C180.197 66.7 179.364 63.1333 177.697 60C176.03 56.8667 173.697 54.4667 170.697 52.8C167.764 51.0667 164.43 50.2 160.697 50.2C156.964 50.2 153.597 51.0667 150.597 52.8C147.664 54.4667 145.33 56.8667 143.597 60C141.93 63.1333 141.097 66.7 141.097 70.7C141.097 74.7 141.93 78.2667 143.597 81.4C145.33 84.5333 147.664 86.9667 150.597 88.7C153.597 90.3667 156.964 91.2 160.697 91.2ZM229.592 93.8C228.259 95 226.592 95.9333 224.592 96.6C222.659 97.2 220.626 97.5 218.492 97.5C213.559 97.5 209.759 96.1667 207.092 93.5C204.426 90.8333 203.092 87.0667 203.092 82.2V50.4H193.692V44.4H203.092V32.9H210.192V44.4H226.192V50.4H210.192V81.8C210.192 84.9333 210.959 87.3333 212.492 89C214.092 90.6 216.359 91.4 219.292 91.4C220.759 91.4 222.159 91.1667 223.492 90.7C224.892 90.2333 226.092 89.5667 227.092 88.7L229.592 93.8ZM242.517 44.4H249.617V97H242.517V44.4ZM246.117 32.9C244.651 32.9 243.417 32.4 242.417 31.4C241.417 30.4 240.917 29.2 240.917 27.8C240.917 26.4667 241.417 25.3 242.417 24.3C243.417 23.3 244.651 22.8 246.117 22.8C247.584 22.8 248.817 23.3 249.817 24.3C250.817 25.2333 251.317 26.3667 251.317 27.7C251.317 29.1667 250.817 30.4 249.817 31.4C248.817 32.4 247.584 32.9 246.117 32.9ZM286.773 28.3C283.706 28.3 281.373 29.1333 279.773 30.8C278.239 32.4667 277.473 34.9333 277.473 38.2V44.4H293.673V50.4H277.673V97H270.573V50.4H261.173V44.4H270.573V37.9C270.573 33.1 271.939 29.3 274.673 26.5C277.473 23.7 281.406 22.3 286.473 22.3C288.473 22.3 290.406 22.6 292.273 23.2C294.139 23.7333 295.706 24.5333 296.973 25.6L294.573 30.9C292.506 29.1667 289.906 28.3 286.773 28.3ZM348.436 44.4L322.136 103.3C320.003 108.233 317.536 111.733 314.736 113.8C311.936 115.867 308.569 116.9 304.636 116.9C302.103 116.9 299.736 116.5 297.536 115.7C295.336 114.9 293.436 113.7 291.836 112.1L295.136 106.8C297.803 109.467 301.003 110.8 304.736 110.8C307.136 110.8 309.169 110.133 310.836 108.8C312.569 107.467 314.169 105.2 315.636 102L317.936 96.9L294.436 44.4H301.836L321.636 89.1L341.436 44.4H348.436Z" fill="black"/>
<path d="M15.7 95.1L14.7036 97.9297L14.716 97.934L15.7 95.1ZM4.7 88.5L2.02617 87.1396L1.06415 89.0305L2.52633 90.5676L4.7 88.5ZM7.6 82.8L9.72132 80.6787L6.79974 77.7571L4.92617 81.4396L7.6 82.8ZM17.7 89L16.632 91.8035L16.6515 91.8109L16.6712 91.8181L17.7 89ZM44.8 87.9L46.5584 90.3307L46.5752 90.3185L46.5918 90.3061L44.8 87.9ZM46.9 72.2L44.7787 74.3213L44.7995 74.3421L44.8207 74.3625L46.9 72.2ZM40.7 68.4L39.6383 71.2059L39.6718 71.2185L39.7055 71.2304L40.7 68.4ZM30.4 65.4L29.6637 68.3083L29.6784 68.312L29.6932 68.3156L30.4 65.4ZM17.8 61.6L16.6756 64.3813L16.7013 64.3917L16.7271 64.4016L17.8 61.6ZM9.7 55.9L7.4349 57.8671L7.44947 57.8838L7.46428 57.9004L9.7 55.9ZM9.2 36L11.714 37.637L11.7226 37.6239L11.731 37.6106L9.2 36ZM17.8 29L19.0272 31.7375H19.0272L17.8 29ZM43.9 28.1L43.0426 30.9749L43.0723 30.9837L43.1022 30.992L43.9 28.1ZM53.9 32.6L56.6623 33.7704L57.6158 31.52L55.6046 30.1313L53.9 32.6ZM51.4 38.5L49.7491 41.0049L52.7568 42.9873L54.1623 39.6704L51.4 38.5ZM42 34.2L41.138 37.0735L41.1645 37.0814L41.1911 37.0889L42 34.2ZM18.3 36.3L20.1166 38.6875L20.1242 38.6816L18.3 36.3ZM16.2 52.2L14.0375 54.2793L14.0783 54.3217L14.1207 54.3625L16.2 52.2ZM22.6 56.1L21.5629 58.915L21.6069 58.9312L21.6513 58.946L22.6 56.1ZM33 59L33.7187 56.0874L33.7171 56.087L33 59ZM45.4 62.8L44.2756 65.5813L44.311 65.5956L44.3466 65.609L45.4 62.8ZM53.5 68.4L51.2349 70.3671L51.2479 70.382L51.2611 70.3968L53.5 68.4ZM53.9 88.2L51.3951 86.5491L51.3905 86.556L51.386 86.563L53.9 88.2ZM45.2 95.1L46.3704 97.8623L46.3902 97.8539L46.4098 97.8453L45.2 95.1ZM30.7 94.6C25.827 94.6 21.1602 93.8202 16.684 92.266L14.716 97.934C19.8398 99.7131 25.173 100.6 30.7 100.6V94.6ZM16.6964 92.2703C12.2687 90.7113 9.05726 88.7279 6.87367 86.4324L2.52633 90.5676C5.54274 93.7387 9.66464 96.1554 14.7036 97.9297L16.6964 92.2703ZM7.37383 89.8604L10.2738 84.1604L4.92617 81.4396L2.02617 87.1396L7.37383 89.8604ZM5.47868 84.9213C8.37698 87.8196 12.1342 90.09 16.632 91.8035L18.768 86.1965C14.8658 84.71 11.8897 82.847 9.72132 80.6787L5.47868 84.9213ZM16.6712 91.8181C21.2005 93.4716 25.882 94.3 30.7 94.3V88.3C26.5846 88.3 22.5995 87.595 18.7288 86.1819L16.6712 91.8181ZM30.7 94.3C37.2387 94.3 42.6838 93.1335 46.5584 90.3307L43.0416 85.4693C40.6495 87.1998 36.6946 88.3 30.7 88.3V94.3ZM46.5918 90.3061C50.4273 87.4499 52.5 83.5846 52.5 78.9H46.5C46.5 81.5487 45.4393 83.6835 43.0082 85.4939L46.5918 90.3061ZM52.5 78.9C52.5 75.4298 51.3983 72.3635 48.9793 70.0375L44.8207 74.3625C45.8683 75.3699 46.5 76.7702 46.5 78.9H52.5ZM49.0213 70.0787C47.0036 68.0609 44.5383 66.5688 41.6945 65.5696L39.7055 71.2304C41.795 71.9645 43.4631 73.0057 44.7787 74.3213L49.0213 70.0787ZM41.7617 65.5941C39.1259 64.5968 35.5551 63.5628 31.1068 62.4844L29.6932 68.3156C34.0449 69.3705 37.3408 70.3365 39.6383 71.2059L41.7617 65.5941ZM31.1363 62.4917C25.9233 61.172 21.8503 59.9387 18.8729 58.7984L16.7271 64.4016C20.0164 65.6613 24.3434 66.9613 29.6637 68.3083L31.1363 62.4917ZM18.9244 58.8187C16.2189 57.725 13.8984 56.0932 11.9357 53.8996L7.46428 57.9004C10.035 60.7735 13.1144 62.9417 16.6756 64.3813L18.9244 58.8187ZM11.9651 53.9329C10.3635 52.0887 9.4 49.4261 9.4 45.6H3.4C3.4 50.4405 4.6365 54.6447 7.4349 57.8671L11.9651 53.9329ZM9.4 45.6C9.4 42.6277 10.1753 40 11.714 37.637L6.68601 34.363C4.49133 37.7334 3.4 41.5056 3.4 45.6H9.4ZM11.731 37.6106C13.2196 35.2713 15.5778 33.2838 19.0272 31.7375L16.5728 26.2625C12.2888 28.1829 8.9137 30.862 6.66902 34.3894L11.731 37.6106ZM19.0272 31.7375C22.3971 30.2269 26.7486 29.4 32.2 29.4V23.4C26.1847 23.4 20.9362 24.3065 16.5728 26.2625L19.0272 31.7375ZM32.2 29.4C35.9122 29.4 39.5233 29.9252 43.0426 30.9749L44.7574 25.2251C40.6767 24.0081 36.4878 23.4 32.2 23.4V29.4ZM43.1022 30.992C46.7016 31.9849 49.7163 33.3569 52.1954 35.0687L55.6046 30.1313C52.4837 27.9764 48.8318 26.3484 44.6978 25.208L43.1022 30.992ZM51.1377 31.4295L48.6377 37.3295L54.1623 39.6704L56.6623 33.7704L51.1377 31.4295ZM53.0509 35.9951C49.8624 33.8936 46.4456 32.3294 42.8089 31.3111L41.1911 37.0889C44.2211 37.9373 47.0709 39.2397 49.7491 41.0049L53.0509 35.9951ZM42.862 31.3265C39.2734 30.2499 35.7163 29.7 32.2 29.7V35.7C35.0837 35.7 38.06 36.1501 41.138 37.0735L42.862 31.3265ZM32.2 29.7C25.7504 29.7 20.3519 30.9494 16.4758 33.9184L20.1242 38.6816C22.5147 36.8506 26.3829 35.7 32.2 35.7V29.7ZM16.4834 33.9125C12.6992 36.7918 10.7 40.6949 10.7 45.4H16.7C16.7 42.6384 17.7675 40.4748 20.1166 38.6875L16.4834 33.9125ZM10.7 45.4C10.7 48.8384 11.7455 51.8957 14.0375 54.2793L18.3625 50.1207C17.3211 49.0376 16.7 47.5616 16.7 45.4H10.7ZM14.1207 54.3625C16.1873 56.3496 18.6886 57.8561 21.5629 58.915L23.6371 53.285C21.4447 52.4773 19.6794 51.3837 18.2793 50.0375L14.1207 54.3625ZM21.6513 58.946C24.3597 59.8489 27.9134 60.8375 32.2829 61.913L33.7171 56.087C29.42 55.0292 26.0403 54.0845 23.5487 53.2539L21.6513 58.946ZM32.2813 61.9126C37.3442 63.1619 41.3261 64.389 44.2756 65.5813L46.5244 60.0187C43.2072 58.6777 38.9224 57.3714 33.7187 56.0874L32.2813 61.9126ZM44.3466 65.609C47.088 66.637 49.3687 68.2181 51.2349 70.3671L55.7651 66.4329C53.2313 63.5152 50.112 61.363 46.4534 59.991L44.3466 65.609ZM51.2611 70.3968C52.8419 72.1692 53.8 74.7497 53.8 78.5H59.8C59.8 73.7169 58.5581 69.5641 55.7389 66.4032L51.2611 70.3968ZM53.8 78.5C53.8 81.45 53.0035 84.1087 51.3951 86.5491L56.4049 89.8509C58.6632 86.4246 59.8 82.6166 59.8 78.5H53.8ZM51.386 86.563C49.9099 88.8299 47.5269 90.7962 43.9902 92.3547L46.4098 97.8453C50.7398 95.9371 54.1568 93.3034 56.414 89.837L51.386 86.563ZM44.0296 92.3377C40.5698 93.8037 36.1611 94.6 30.7 94.6V100.6C36.7056 100.6 41.9635 99.7296 46.3704 97.8623L44.0296 92.3377ZM111.923 47.4L110.444 50.0101L110.461 50.0195L110.478 50.0286L111.923 47.4ZM121.323 56.8L123.944 55.3394L121.323 56.8ZM121.323 84.7L123.944 86.1606L121.323 84.7ZM111.923 94.2L113.388 96.8183L113.395 96.8142L113.402 96.8101L111.923 94.2ZM86.9234 94.9L85.5198 97.5514L85.5506 97.5677L85.5818 97.5833L86.9234 94.9ZM78.5234 87.1L81.0421 85.4702L75.5234 76.9413V87.1H78.5234ZM78.5234 116.4V119.4H81.5234V116.4H78.5234ZM71.4234 116.4H68.4234V119.4H71.4234V116.4ZM71.4234 44.4V41.4H68.4234V44.4H71.4234ZM78.2234 44.4H81.2234V41.4H78.2234V44.4ZM78.2234 54.8H75.2234V65.3991L80.7784 56.3723L78.2234 54.8ZM86.6234 46.8L85.2221 44.1474L85.2116 44.153L85.2011 44.1586L86.6234 46.8ZM108.023 88.7L109.48 91.3225L109.502 91.3102L109.524 91.2976L108.023 88.7ZM115.023 81.4L112.398 79.9478L112.386 79.9694L112.375 79.9912L115.023 81.4ZM115.023 60.1L112.375 61.5088L112.393 61.5427L112.412 61.5762L115.023 60.1ZM108.023 52.8L109.524 50.2024H109.524L108.023 52.8ZM87.9234 52.8L86.4226 50.2024L86.4099 50.2097L86.3972 50.2172L87.9234 52.8ZM80.9234 60.1L78.2983 58.6478L78.2929 58.6576L78.2876 58.6675L80.9234 60.1ZM80.9234 81.4L78.2748 82.8088L78.2864 82.8306L78.2983 82.8522L80.9234 81.4ZM87.9234 88.7L86.3972 91.2828L86.4316 91.3031L86.4665 91.3225L87.9234 88.7ZM98.5234 47C102.977 47 106.928 48.0176 110.444 50.0101L113.402 44.7899C108.919 42.2491 103.936 41 98.5234 41V47ZM110.478 50.0286C113.974 51.9516 116.705 54.6755 118.703 58.2606L123.944 55.3394C121.409 50.7912 117.873 47.2484 113.369 44.7714L110.478 50.0286ZM118.703 58.2606C120.693 61.8303 121.723 65.9503 121.723 70.7H127.723C127.723 65.0497 126.488 59.903 123.944 55.3394L118.703 58.2606ZM121.723 70.7C121.723 75.5236 120.69 79.6753 118.703 83.2394L123.944 86.1606C126.491 81.5914 127.723 76.4098 127.723 70.7H121.723ZM118.703 83.2394C116.701 86.8319 113.959 89.5981 110.444 91.5899L113.402 96.8101C117.887 94.2686 121.413 90.7014 123.944 86.1606L118.703 83.2394ZM110.459 91.5817C107.021 93.5048 103.068 94.5 98.5234 94.5V100.5C103.979 100.5 108.96 99.2952 113.388 96.8183L110.459 91.5817ZM98.5234 94.5C94.6748 94.5 91.2745 93.7214 88.2651 92.2167L85.5818 97.5833C89.5057 99.5452 93.8387 100.5 98.5234 100.5V94.5ZM88.3271 92.2486C85.404 90.7011 82.979 88.4636 81.0421 85.4702L76.0047 88.7298C78.4679 92.5364 81.6429 95.4989 85.5198 97.5514L88.3271 92.2486ZM75.5234 87.1V116.4H81.5234V87.1H75.5234ZM78.5234 113.4H71.4234V119.4H78.5234V113.4ZM74.4234 116.4V44.4H68.4234V116.4H74.4234ZM71.4234 47.4H78.2234V41.4H71.4234V47.4ZM75.2234 44.4V54.8H81.2234V44.4H75.2234ZM80.7784 56.3723C82.6447 53.3396 85.0603 51.0489 88.0457 49.4414L85.2011 44.1586C81.2532 46.2844 78.0689 49.3271 75.6685 53.2277L80.7784 56.3723ZM88.0248 49.4526C91.0839 47.8365 94.5616 47 98.5234 47V41C93.6853 41 89.2297 42.0302 85.2221 44.1474L88.0248 49.4526ZM98.0234 94.2C102.164 94.2 106.004 93.2536 109.48 91.3225L106.567 86.0775C104.043 87.4797 101.216 88.2 98.0234 88.2V94.2ZM109.524 91.2976C113.023 89.2761 115.748 86.4253 117.672 82.8088L112.375 79.9912C110.965 82.6413 109.024 84.6572 106.523 86.1024L109.524 91.2976ZM117.649 82.8522C119.656 79.2242 120.623 75.1474 120.623 70.7H114.623C114.623 74.2526 113.858 77.3092 112.398 79.9478L117.649 82.8522ZM120.623 70.7C120.623 66.2539 119.656 62.199 117.635 58.6238L112.412 61.5762C113.858 64.1343 114.623 67.1461 114.623 70.7H120.623ZM117.672 58.6912C115.748 55.0747 113.023 52.2239 109.524 50.2024L106.523 55.3976C109.024 56.8428 110.965 58.8587 112.375 61.5088L117.672 58.6912ZM109.524 50.2024C106.041 48.1899 102.185 47.2 98.0234 47.2V53.2C101.195 53.2 104.006 53.9434 106.523 55.3976L109.524 50.2024ZM98.0234 47.2C93.8054 47.2 89.9141 48.1851 86.4226 50.2024L89.4243 55.3976C91.9328 53.9482 94.7748 53.2 98.0234 53.2V47.2ZM86.3972 50.2172C82.9795 52.2368 80.2769 55.0712 78.2983 58.6478L83.5485 61.5522C85.0367 58.8621 87.0007 56.8299 89.4496 55.3828L86.3972 50.2172ZM78.2876 58.6675C76.349 62.2344 75.4234 66.2734 75.4234 70.7H81.4234C81.4234 67.1266 82.1645 64.099 83.5593 61.5325L78.2876 58.6675ZM75.4234 70.7C75.4234 75.128 76.3494 79.1891 78.2748 82.8088L83.5721 79.9912C82.1641 77.3442 81.4234 74.2719 81.4234 70.7H75.4234ZM78.2983 82.8522C80.2769 86.4288 82.9795 89.2632 86.3972 91.2828L89.4496 86.1172C87.0007 84.6701 85.0367 82.6379 83.5485 79.9478L78.2983 82.8522ZM86.4665 91.3225C89.9507 93.2581 93.8263 94.2 98.0234 94.2V88.2C94.7539 88.2 91.8961 87.4752 89.3804 86.0775L86.4665 91.3225ZM146.997 94.1L145.504 96.7021L145.52 96.7114L145.536 96.7204L146.997 94.1ZM137.397 84.5L134.795 85.993L137.397 84.5ZM137.397 56.9L134.795 55.407L137.397 56.9ZM146.997 47.4L145.536 44.7796L146.997 47.4ZM174.397 47.4L175.857 44.7796L174.397 47.4ZM183.897 56.9L181.276 58.3606L181.286 58.3768L181.295 58.393L183.897 56.9ZM183.897 84.5L181.295 83.007L181.286 83.0231L181.276 83.0394L183.897 84.5ZM174.397 94.1L175.857 96.7204L175.874 96.7114L175.89 96.7021L174.397 94.1ZM170.697 88.7L172.179 91.3084L172.188 91.303L172.198 91.2976L170.697 88.7ZM177.697 81.4L180.345 82.8088L177.697 81.4ZM177.697 60L180.345 58.5912L177.697 60ZM170.697 52.8L169.171 55.3828L169.205 55.4031L169.24 55.4225L170.697 52.8ZM150.597 52.8L152.079 55.4084L152.088 55.403L152.098 55.3976L150.597 52.8ZM143.597 60L140.972 58.5478L140.96 58.5694L140.948 58.5912L143.597 60ZM143.597 81.4L140.948 82.8088L140.96 82.8306L140.972 82.8522L143.597 81.4ZM150.597 88.7L149.071 91.2828L149.105 91.3031L149.14 91.3225L150.597 88.7ZM160.697 94.5C156.095 94.5 152.039 93.4757 148.457 91.4796L145.536 96.7204C150.088 99.2576 155.165 100.5 160.697 100.5V94.5ZM148.49 91.4979C144.885 89.4294 142.068 86.6121 139.999 83.007L134.795 85.993C137.393 90.5212 140.976 94.104 145.504 96.7021L148.49 91.4979ZM139.999 83.007C137.951 79.4371 136.897 75.3605 136.897 70.7H130.897C130.897 76.3061 132.176 81.4296 134.795 85.993L139.999 83.007ZM136.897 70.7C136.897 66.0395 137.951 61.9629 139.999 58.393L134.795 55.407C132.176 59.9704 130.897 65.0939 130.897 70.7H136.897ZM139.999 58.393C142.063 54.7953 144.87 52.0199 148.457 50.0204L145.536 44.7796C140.99 47.3134 137.397 50.8714 134.795 55.407L139.999 58.393ZM148.457 50.0204C152.039 48.0243 156.095 47 160.697 47V41C155.165 41 150.088 42.2423 145.536 44.7796L148.457 50.0204ZM160.697 47C165.299 47 169.355 48.0243 172.936 50.0204L175.857 44.7796C171.305 42.2423 166.228 41 160.697 41V47ZM172.936 50.0204C176.516 52.0157 179.281 54.7808 181.276 58.3606L186.517 55.4394C183.979 50.8859 180.411 47.3176 175.857 44.7796L172.936 50.0204ZM181.295 58.393C183.343 61.9629 184.397 66.0395 184.397 70.7H190.397C190.397 65.0939 189.117 59.9704 186.499 55.407L181.295 58.393ZM184.397 70.7C184.397 75.3605 183.343 79.4371 181.295 83.007L186.499 85.993C189.117 81.4296 190.397 76.3061 190.397 70.7H184.397ZM181.276 83.0394C179.277 86.6268 176.502 89.4336 172.904 91.4979L175.89 96.7021C180.426 94.0997 183.983 90.5066 186.517 85.9606L181.276 83.0394ZM172.936 91.4796C169.355 93.4757 165.299 94.5 160.697 94.5V100.5C166.228 100.5 171.305 99.2576 175.857 96.7204L172.936 91.4796ZM160.697 94.2C164.893 94.2 168.747 93.2583 172.179 91.3084L169.215 86.0916C166.78 87.475 163.967 88.2 160.697 88.2V94.2ZM172.198 91.2976C175.696 89.2761 178.422 86.4253 180.345 82.8088L175.048 79.9912C173.639 82.6413 171.697 84.6572 169.196 86.1024L172.198 91.2976ZM180.345 82.8088C182.271 79.1891 183.197 75.128 183.197 70.7H177.197C177.197 74.2719 176.456 77.3442 175.048 79.9912L180.345 82.8088ZM183.197 70.7C183.197 66.2719 182.271 62.2109 180.345 58.5912L175.048 61.4088C176.456 64.0558 177.197 67.128 177.197 70.7H183.197ZM180.345 58.5912C178.417 54.9652 175.678 52.1353 172.154 50.1775L169.24 55.4225C171.716 56.7981 173.644 58.7681 175.048 61.4088L180.345 58.5912ZM172.223 50.2172C168.784 48.185 164.914 47.2 160.697 47.2V53.2C163.946 53.2 166.743 53.9483 169.171 55.3828L172.223 50.2172ZM160.697 47.2C156.479 47.2 152.588 48.1851 149.096 50.2024L152.098 55.3976C154.606 53.9482 157.448 53.2 160.697 53.2V47.2ZM149.115 50.1916C145.671 52.1481 142.955 54.9621 140.972 58.5478L146.222 61.4522C147.705 58.7712 149.656 56.7853 152.079 55.4084L149.115 50.1916ZM140.948 58.5912C139.023 62.2109 138.097 66.2719 138.097 70.7H144.097C144.097 67.128 144.838 64.0558 146.245 61.4088L140.948 58.5912ZM138.097 70.7C138.097 75.128 139.023 79.1891 140.948 82.8088L146.245 79.9912C144.838 77.3442 144.097 74.2719 144.097 70.7H138.097ZM140.972 82.8522C142.95 86.4288 145.653 89.2632 149.071 91.2828L152.123 86.1172C149.674 84.6701 147.71 82.6379 146.222 79.9478L140.972 82.8522ZM149.14 91.3225C152.624 93.2581 156.5 94.2 160.697 94.2V88.2C157.427 88.2 154.57 87.4752 152.054 86.0775L149.14 91.3225ZM229.592 93.8L231.599 96.0299L233.283 94.5141L232.286 92.4795L229.592 93.8ZM224.592 96.6L225.481 99.4652L225.511 99.4559L225.541 99.4461L224.592 96.6ZM207.092 93.5L204.971 95.6213L207.092 93.5ZM203.092 50.4H206.092V47.4H203.092V50.4ZM193.692 50.4H190.692V53.4H193.692V50.4ZM193.692 44.4V41.4H190.692V44.4H193.692ZM203.092 44.4V47.4H206.092V44.4H203.092ZM203.092 32.9V29.9H200.092V32.9H203.092ZM210.192 32.9H213.192V29.9H210.192V32.9ZM210.192 44.4H207.192V47.4H210.192V44.4ZM226.192 44.4H229.192V41.4H226.192V44.4ZM226.192 50.4V53.4H229.192V50.4H226.192ZM210.192 50.4V47.4H207.192V50.4H210.192ZM212.492 89L210.284 91.0312L210.327 91.0771L210.371 91.1213L212.492 89ZM223.492 90.7L222.544 87.854L222.522 87.861L222.501 87.8684L223.492 90.7ZM227.092 88.7L229.786 87.3795L228.071 83.8816L225.127 86.4329L227.092 88.7ZM227.585 91.5701C226.608 92.4501 225.32 93.1952 223.644 93.754L225.541 99.4461C227.865 98.6715 229.91 97.5499 231.599 96.0299L227.585 91.5701ZM223.703 93.7348C222.073 94.2407 220.34 94.5 218.492 94.5V100.5C220.911 100.5 223.245 100.159 225.481 99.4652L223.703 93.7348ZM218.492 94.5C214.1 94.5 211.16 93.325 209.214 91.3787L204.971 95.6213C208.358 99.0084 213.018 100.5 218.492 100.5V94.5ZM209.214 91.3787C207.26 89.425 206.092 86.5125 206.092 82.2H200.092C200.092 87.6208 201.591 92.2416 204.971 95.6213L209.214 91.3787ZM206.092 82.2V50.4H200.092V82.2H206.092ZM203.092 47.4H193.692V53.4H203.092V47.4ZM196.692 50.4V44.4H190.692V50.4H196.692ZM193.692 47.4H203.092V41.4H193.692V47.4ZM206.092 44.4V32.9H200.092V44.4H206.092ZM203.092 35.9H210.192V29.9H203.092V35.9ZM207.192 32.9V44.4H213.192V32.9H207.192ZM210.192 47.4H226.192V41.4H210.192V47.4ZM223.192 44.4V50.4H229.192V44.4H223.192ZM226.192 47.4H210.192V53.4H226.192V47.4ZM207.192 50.4V81.8H213.192V50.4H207.192ZM207.192 81.8C207.192 85.3952 208.074 88.6287 210.284 91.0312L214.7 86.9688C213.844 86.0379 213.192 84.4714 213.192 81.8H207.192ZM210.371 91.1213C212.686 93.4368 215.809 94.4 219.292 94.4V88.4C216.908 88.4 215.498 87.7632 214.614 86.8787L210.371 91.1213ZM219.292 94.4C221.083 94.4 222.819 94.114 224.483 93.5316L222.501 87.8684C221.498 88.2194 220.434 88.4 219.292 88.4V94.4ZM224.441 93.5461C226.171 92.9693 227.727 92.1196 229.057 90.9671L225.127 86.4329C224.457 87.0137 223.613 87.4974 222.544 87.854L224.441 93.5461ZM224.398 90.0205L226.898 95.1205L232.286 92.4795L229.786 87.3795L224.398 90.0205ZM242.517 44.4V41.4H239.517V44.4H242.517ZM249.617 44.4H252.617V41.4H249.617V44.4ZM249.617 97V100H252.617V97H249.617ZM242.517 97H239.517V100H242.517V97ZM242.417 24.3L240.296 22.1787V22.1787L242.417 24.3ZM249.817 24.3L247.696 26.4213L247.732 26.4579L247.77 26.4932L249.817 24.3ZM242.517 47.4H249.617V41.4H242.517V47.4ZM246.617 44.4V97H252.617V44.4H246.617ZM249.617 94H242.517V100H249.617V94ZM245.517 97V44.4H239.517V97H245.517ZM246.117 29.9C245.413 29.9 244.953 29.6932 244.539 29.2787L240.296 33.5213C241.881 35.1068 243.888 35.9 246.117 35.9V29.9ZM244.539 29.2787C244.095 28.8349 243.917 28.3953 243.917 27.8H237.917C237.917 30.0047 238.74 31.9651 240.296 33.5213L244.539 29.2787ZM243.917 27.8C243.917 27.3143 244.063 26.8966 244.539 26.4213L240.296 22.1787C238.771 23.7034 237.917 25.619 237.917 27.8H243.917ZM244.539 26.4213C244.953 26.0068 245.413 25.8 246.117 25.8V19.8C243.888 19.8 241.881 20.5932 240.296 22.1787L244.539 26.4213ZM246.117 25.8C246.821 25.8 247.281 26.0068 247.696 26.4213L251.939 22.1787C250.353 20.5932 248.347 19.8 246.117 19.8V25.8ZM247.77 26.4932C248.18 26.8758 248.317 27.2223 248.317 27.7H254.317C254.317 25.511 253.454 23.5909 251.864 22.1068L247.77 26.4932ZM248.317 27.7C248.317 28.404 248.11 28.8642 247.696 29.2787L251.939 33.5213C253.524 31.9358 254.317 29.9294 254.317 27.7H248.317ZM247.696 29.2787C247.281 29.6932 246.821 29.9 246.117 29.9V35.9C248.347 35.9 250.353 35.1068 251.939 33.5213L247.696 29.2787ZM279.773 30.8L277.608 28.7224L277.586 28.7454L277.565 28.7688L279.773 30.8ZM277.473 44.4H274.473V47.4H277.473V44.4ZM293.673 44.4H296.673V41.4H293.673V44.4ZM293.673 50.4V53.4H296.673V50.4H293.673ZM277.673 50.4V47.4H274.673V50.4H277.673ZM277.673 97V100H280.673V97H277.673ZM270.573 97H267.573V100H270.573V97ZM270.573 50.4H273.573V47.4H270.573V50.4ZM261.173 50.4H258.173V53.4H261.173V50.4ZM261.173 44.4V41.4H258.173V44.4H261.173ZM270.573 44.4V47.4H273.573V44.4H270.573ZM274.673 26.5L272.551 24.3787L272.539 24.3915L272.526 24.4044L274.673 26.5ZM292.273 23.2L291.355 26.0561L291.401 26.0711L291.448 26.0846L292.273 23.2ZM296.973 25.6L299.706 26.8375L300.642 24.7684L298.905 23.3053L296.973 25.6ZM294.573 30.9L292.645 33.1986L295.674 35.7395L297.306 32.1375L294.573 30.9ZM286.773 25.3C283.168 25.3 279.942 26.2919 277.608 28.7224L281.937 32.8776C282.804 31.9747 284.244 31.3 286.773 31.3V25.3ZM277.565 28.7688C275.336 31.1918 274.473 34.5108 274.473 38.2H280.473C280.473 35.3558 281.143 33.7415 281.98 32.8312L277.565 28.7688ZM274.473 38.2V44.4H280.473V38.2H274.473ZM277.473 47.4H293.673V41.4H277.473V47.4ZM290.673 44.4V50.4H296.673V44.4H290.673ZM293.673 47.4H277.673V53.4H293.673V47.4ZM274.673 50.4V97H280.673V50.4H274.673ZM277.673 94H270.573V100H277.673V94ZM273.573 97V50.4H267.573V97H273.573ZM270.573 47.4H261.173V53.4H270.573V47.4ZM264.173 50.4V44.4H258.173V50.4H264.173ZM261.173 47.4H270.573V41.4H261.173V47.4ZM273.573 44.4V37.9H267.573V44.4H273.573ZM273.573 37.9C273.573 33.6951 274.752 30.7137 276.819 28.5956L272.526 24.4044C269.127 27.8863 267.573 32.5048 267.573 37.9H273.573ZM276.794 28.6213C278.886 26.5297 281.969 25.3 286.473 25.3V19.3C280.843 19.3 276.06 20.8703 272.551 24.3787L276.794 28.6213ZM286.473 25.3C288.167 25.3 289.791 25.5534 291.355 26.0561L293.191 20.3439C291.021 19.6466 288.778 19.3 286.473 19.3V25.3ZM291.448 26.0846C292.978 26.5215 294.148 27.1436 295.04 27.8947L298.905 23.3053C297.264 21.9231 295.301 20.9452 293.097 20.3154L291.448 26.0846ZM294.24 24.3625L291.84 29.6625L297.306 32.1375L299.706 26.8375L294.24 24.3625ZM296.5 28.6014C293.808 26.3434 290.491 25.3 286.773 25.3V31.3C289.321 31.3 291.204 31.9899 292.645 33.1986L296.5 28.6014ZM348.436 44.4L351.175 45.6232L353.061 41.4H348.436V44.4ZM322.136 103.3L319.397 102.077L319.389 102.093L319.382 102.109L322.136 103.3ZM314.736 113.8L316.517 116.214L314.736 113.8ZM297.536 115.7L298.561 112.881L297.536 115.7ZM291.836 112.1L289.289 110.514L288.03 112.537L289.715 114.221L291.836 112.1ZM295.136 106.8L297.257 104.679L294.586 102.007L292.589 105.214L295.136 106.8ZM310.836 108.8L309.007 106.422L308.984 106.44L308.962 106.457L310.836 108.8ZM315.636 102L318.363 103.25L318.367 103.242L318.371 103.233L315.636 102ZM317.936 96.9L320.671 98.1333L321.225 96.9046L320.674 95.6743L317.936 96.9ZM294.436 44.4V41.4H289.806L291.698 45.6257L294.436 44.4ZM301.836 44.4L304.579 43.185L303.788 41.4H301.836V44.4ZM321.636 89.1L318.893 90.315L321.636 96.5074L324.379 90.315L321.636 89.1ZM341.436 44.4V41.4H339.484L338.693 43.185L341.436 44.4ZM345.697 43.1768L319.397 102.077L324.875 104.523L351.175 45.6232L345.697 43.1768ZM319.382 102.109C317.354 106.799 315.157 109.761 312.954 111.386L316.517 116.214C319.915 113.706 322.651 109.668 324.889 104.491L319.382 102.109ZM312.954 111.386C310.736 113.023 308.015 113.9 304.636 113.9V119.9C309.123 119.9 313.135 118.71 316.517 116.214L312.954 111.386ZM304.636 113.9C302.423 113.9 300.407 113.552 298.561 112.881L296.511 118.519C299.065 119.448 301.782 119.9 304.636 119.9V113.9ZM298.561 112.881C296.759 112.225 295.236 111.258 293.957 109.979L289.715 114.221C291.635 116.142 293.913 117.575 296.511 118.519L298.561 112.881ZM294.383 113.686L297.683 108.386L292.589 105.214L289.289 110.514L294.383 113.686ZM293.015 108.921C296.237 112.144 300.198 113.8 304.736 113.8V107.8C301.807 107.8 299.368 106.789 297.257 104.679L293.015 108.921ZM304.736 113.8C307.728 113.8 310.445 112.954 312.71 111.143L308.962 106.457C307.893 107.312 306.544 107.8 304.736 107.8V113.8ZM312.665 111.178C314.952 109.419 316.804 106.652 318.363 103.25L312.909 100.75C311.535 103.748 310.187 105.514 309.007 106.422L312.665 111.178ZM318.371 103.233L320.671 98.1333L315.201 95.6667L312.901 100.767L318.371 103.233ZM320.674 95.6743L297.174 43.1743L291.698 45.6257L315.198 98.1257L320.674 95.6743ZM294.436 47.4H301.836V41.4H294.436V47.4ZM299.093 45.615L318.893 90.315L324.379 87.885L304.579 43.185L299.093 45.615ZM324.379 90.315L344.179 45.615L338.693 43.185L318.893 87.885L324.379 90.315ZM341.436 47.4H348.436V41.4H341.436V47.4Z" fill="black"/>
<mask id="mask0" mask-type="alpha" maskUnits="userSpaceOnUse" x="351" y="19" width="501" height="82">
<path d="M425.6 27L394.6 97H387.3L356.3 27H364.3L391.1 87.8L418.1 27H425.6ZM433.966 44.4H441.066V97H433.966V44.4ZM437.566 32.9C436.1 32.9 434.866 32.4 433.866 31.4C432.866 30.4 432.366 29.2 432.366 27.8C432.366 26.4667 432.866 25.3 433.866 24.3C434.866 23.3 436.1 22.8 437.566 22.8C439.033 22.8 440.266 23.3 441.266 24.3C442.266 25.2333 442.766 26.3667 442.766 27.7C442.766 29.1667 442.266 30.4 441.266 31.4C440.266 32.4 439.033 32.9 437.566 32.9ZM474.922 97.5C470.655 97.5 466.555 96.9 462.622 95.7C458.755 94.4333 455.722 92.8667 453.522 91L456.722 85.4C458.922 87.1333 461.689 88.5667 465.022 89.7C468.355 90.7667 471.822 91.3 475.422 91.3C480.222 91.3 483.755 90.5667 486.022 89.1C488.355 87.5667 489.522 85.4333 489.522 82.7C489.522 80.7667 488.889 79.2667 487.622 78.2C486.355 77.0667 484.755 76.2333 482.822 75.7C480.889 75.1 478.322 74.5333 475.122 74C470.855 73.2 467.422 72.4 464.822 71.6C462.222 70.7333 459.989 69.3 458.122 67.3C456.322 65.3 455.422 62.5333 455.422 59C455.422 54.6 457.255 51 460.922 48.2C464.589 45.4 469.689 44 476.222 44C479.622 44 483.022 44.4667 486.422 45.4C489.822 46.2667 492.622 47.4333 494.822 48.9L491.722 54.6C487.389 51.6 482.222 50.1 476.222 50.1C471.689 50.1 468.255 50.9 465.922 52.5C463.655 54.1 462.522 56.2 462.522 58.8C462.522 60.8 463.155 62.4 464.422 63.6C465.755 64.8 467.389 65.7 469.322 66.3C471.255 66.8333 473.922 67.4 477.322 68C481.522 68.8 484.889 69.6 487.422 70.4C489.955 71.2 492.122 72.5667 493.922 74.5C495.722 76.4333 496.622 79.1 496.622 82.5C496.622 87.1 494.689 90.7667 490.822 93.5C487.022 96.1667 481.722 97.5 474.922 97.5ZM557.148 44.4V97H550.348V87.4C548.481 90.6 545.914 93.1 542.648 94.9C539.381 96.6333 535.648 97.5 531.448 97.5C524.581 97.5 519.148 95.6 515.148 91.8C511.214 87.9333 509.248 82.3 509.248 74.9V44.4H516.348V74.2C516.348 79.7333 517.714 83.9333 520.448 86.8C523.181 89.6667 527.081 91.1 532.148 91.1C537.681 91.1 542.048 89.4333 545.248 86.1C548.448 82.7 550.048 78 550.048 72V44.4H557.148ZM595.433 44C602.299 44 607.566 45.7333 611.233 49.2C614.899 52.6 616.733 57.6667 616.733 64.4V97H609.933V88.8C608.333 91.5333 605.966 93.6667 602.833 95.2C599.766 96.7333 596.099 97.5 591.833 97.5C585.966 97.5 581.299 96.1 577.833 93.3C574.366 90.5 572.633 86.8 572.633 82.2C572.633 77.7333 574.233 74.1333 577.433 71.4C580.699 68.6667 585.866 67.3 592.933 67.3H609.633V64.1C609.633 59.5667 608.366 56.1333 605.833 53.8C603.299 51.4 599.599 50.2 594.733 50.2C591.399 50.2 588.199 50.7667 585.133 51.9C582.066 52.9667 579.433 54.4667 577.233 56.4L574.033 51.1C576.699 48.8333 579.899 47.1 583.633 45.9C587.366 44.6333 591.299 44 595.433 44ZM592.933 91.9C596.933 91.9 600.366 91 603.233 89.2C606.099 87.3333 608.233 84.6667 609.633 81.2V72.6H593.133C584.133 72.6 579.633 75.7333 579.633 82C579.633 85.0667 580.799 87.5 583.133 89.3C585.466 91.0333 588.733 91.9 592.933 91.9ZM636.017 22.8H643.117V97H636.017V22.8ZM662.873 44.4H669.973V97H662.873V44.4ZM666.473 32.9C665.006 32.9 663.773 32.4 662.773 31.4C661.773 30.4 661.273 29.2 661.273 27.8C661.273 26.4667 661.773 25.3 662.773 24.3C663.773 23.3 665.006 22.8 666.473 22.8C667.939 22.8 669.173 23.3 670.173 24.3C671.173 25.2333 671.673 26.3667 671.673 27.7C671.673 29.1667 671.173 30.4 670.173 31.4C669.173 32.4 667.939 32.9 666.473 32.9ZM726.828 91.1V97H684.028V92.3L717.128 50.4H684.628V44.4H726.228V49.1L693.128 91.1H726.828ZM785.723 72.9H741.723C742.123 78.3667 744.223 82.8 748.023 86.2C751.823 89.5333 756.623 91.2 762.423 91.2C765.69 91.2 768.69 90.6333 771.423 89.5C774.157 88.3 776.523 86.5667 778.523 84.3L782.523 88.9C780.19 91.7 777.257 93.8333 773.723 95.3C770.257 96.7667 766.423 97.5 762.223 97.5C756.823 97.5 752.023 96.3667 747.823 94.1C743.69 91.7667 740.457 88.5667 738.123 84.5C735.79 80.4333 734.623 75.8333 734.623 70.7C734.623 65.5667 735.723 60.9667 737.923 56.9C740.19 52.8333 743.257 49.6667 747.123 47.4C751.057 45.1333 755.457 44 760.323 44C765.19 44 769.557 45.1333 773.423 47.4C777.29 49.6667 780.323 52.8333 782.523 56.9C784.723 60.9 785.823 65.5 785.823 70.7L785.723 72.9ZM760.323 50.1C755.257 50.1 750.99 51.7333 747.523 55C744.123 58.2 742.19 62.4 741.723 67.6H779.023C778.557 62.4 776.59 58.2 773.123 55C769.723 51.7333 765.457 50.1 760.323 50.1ZM848.275 22.8V97H841.475V86.6C839.342 90.1333 836.508 92.8333 832.975 94.7C829.508 96.5667 825.575 97.5 821.175 97.5C816.242 97.5 811.775 96.3667 807.775 94.1C803.775 91.8333 800.642 88.6667 798.375 84.6C796.108 80.5333 794.975 75.9 794.975 70.7C794.975 65.5 796.108 60.8667 798.375 56.8C800.642 52.7333 803.775 49.6 807.775 47.4C811.775 45.1333 816.242 44 821.175 44C825.442 44 829.275 44.9 832.675 46.7C836.142 48.4333 838.975 51 841.175 54.4V22.8H848.275ZM821.775 91.2C825.442 91.2 828.742 90.3667 831.675 88.7C834.675 86.9667 837.008 84.5333 838.675 81.4C840.408 78.2667 841.275 74.7 841.275 70.7C841.275 66.7 840.408 63.1333 838.675 60C837.008 56.8667 834.675 54.4667 831.675 52.8C828.742 51.0667 825.442 50.2 821.775 50.2C818.042 50.2 814.675 51.0667 811.675 52.8C808.742 54.4667 806.408 56.8667 804.675 60C803.008 63.1333 802.175 66.7 802.175 70.7C802.175 74.7 803.008 78.2667 804.675 81.4C806.408 84.5333 808.742 86.9667 811.675 88.7C814.675 90.3667 818.042 91.2 821.775 91.2Z" fill="black"/>
<path d="M425.6 27L428.343 28.2148L430.21 24H425.6V27ZM394.6 97V100H396.552L397.343 98.2148L394.6 97ZM387.3 97L384.557 98.2148L385.348 100H387.3V97ZM356.3 27V24H351.69L353.557 28.2148L356.3 27ZM364.3 27L367.045 25.79L366.256 24H364.3V27ZM391.1 87.8L388.355 89.01L391.09 95.2147L393.842 89.0176L391.1 87.8ZM418.1 27V24H416.15L415.358 25.7824L418.1 27ZM422.857 25.7852L391.857 95.7852L397.343 98.2148L428.343 28.2148L422.857 25.7852ZM394.6 94H387.3V100H394.6V94ZM390.043 95.7852L359.043 25.7852L353.557 28.2148L384.557 98.2148L390.043 95.7852ZM356.3 30H364.3V24H356.3V30ZM361.555 28.21L388.355 89.01L393.845 86.59L367.045 25.79L361.555 28.21ZM393.842 89.0176L420.842 28.2176L415.358 25.7824L388.358 86.5824L393.842 89.0176ZM418.1 30H425.6V24H418.1V30ZM433.966 44.4V41.4H430.966V44.4H433.966ZM441.066 44.4H444.066V41.4H441.066V44.4ZM441.066 97V100H444.066V97H441.066ZM433.966 97H430.966V100H433.966V97ZM433.866 24.3L431.745 22.1787V22.1787L433.866 24.3ZM441.266 24.3L439.145 26.4213L439.182 26.4579L439.219 26.4932L441.266 24.3ZM433.966 47.4H441.066V41.4H433.966V47.4ZM438.066 44.4V97H444.066V44.4H438.066ZM441.066 94H433.966V100H441.066V94ZM436.966 97V44.4H430.966V97H436.966ZM437.566 29.9C436.862 29.9 436.402 29.6932 435.988 29.2787L431.745 33.5213C433.331 35.1068 435.337 35.9 437.566 35.9V29.9ZM435.988 29.2787C435.544 28.8349 435.366 28.3953 435.366 27.8H429.366C429.366 30.0047 430.189 31.9651 431.745 33.5213L435.988 29.2787ZM435.366 27.8C435.366 27.3143 435.512 26.8966 435.988 26.4213L431.745 22.1787C430.22 23.7034 429.366 25.619 429.366 27.8H435.366ZM435.988 26.4213C436.402 26.0068 436.862 25.8 437.566 25.8V19.8C435.337 19.8 433.331 20.5932 431.745 22.1787L435.988 26.4213ZM437.566 25.8C438.27 25.8 438.731 26.0068 439.145 26.4213L443.388 22.1787C441.802 20.5932 439.796 19.8 437.566 19.8V25.8ZM439.219 26.4932C439.629 26.8758 439.766 27.2223 439.766 27.7H445.766C445.766 25.511 444.903 23.5909 443.313 22.1068L439.219 26.4932ZM439.766 27.7C439.766 28.404 439.56 28.8642 439.145 29.2787L443.388 33.5213C444.973 31.9358 445.766 29.9294 445.766 27.7H439.766ZM439.145 29.2787C438.731 29.6932 438.27 29.9 437.566 29.9V35.9C439.796 35.9 441.802 35.1068 443.388 33.5213L439.145 29.2787ZM462.622 95.7L461.688 98.5509L461.717 98.5605L461.746 98.5694L462.622 95.7ZM453.522 91L450.917 89.5116L449.681 91.6753L451.581 93.2875L453.522 91ZM456.722 85.4L458.578 83.0435L455.844 80.8892L454.117 83.9116L456.722 85.4ZM465.022 89.7L464.056 92.5403L464.082 92.549L464.108 92.5573L465.022 89.7ZM486.022 89.1L487.652 91.6187L487.661 91.6129L487.669 91.6071L486.022 89.1ZM487.622 78.2L485.621 80.4357L485.655 80.4657L485.689 80.4947L487.622 78.2ZM482.822 75.7L481.933 78.5652L481.978 78.5793L482.024 78.592L482.822 75.7ZM475.122 74L474.569 76.9486L474.599 76.9542L474.629 76.9592L475.122 74ZM464.822 71.6L463.873 74.4461L463.906 74.4571L463.94 74.4673L464.822 71.6ZM458.122 67.3L455.892 69.3069L455.91 69.3271L455.929 69.347L458.122 67.3ZM460.922 48.2L459.101 45.8157L460.922 48.2ZM486.422 45.4L485.628 48.293L485.654 48.3003L485.681 48.307L486.422 45.4ZM494.822 48.9L497.457 50.3333L498.767 47.9247L496.486 46.4038L494.822 48.9ZM491.722 54.6L490.014 57.0666L492.761 58.9683L494.357 56.0333L491.722 54.6ZM465.922 52.5L464.225 50.0258L464.208 50.0373L464.192 50.0491L465.922 52.5ZM464.422 63.6L462.359 65.7779L462.386 65.8042L462.415 65.8299L464.422 63.6ZM469.322 66.3L468.433 69.1652L468.478 69.1793L468.524 69.192L469.322 66.3ZM477.322 68L477.883 65.053L477.863 65.0492L477.843 65.0456L477.322 68ZM487.422 70.4L486.518 73.2607L487.422 70.4ZM493.922 74.5L491.726 76.5443V76.5443L493.922 74.5ZM490.822 93.5L492.545 95.9557L492.554 95.9497L490.822 93.5ZM474.922 94.5C470.941 94.5 467.136 93.9408 463.497 92.8306L461.746 98.5694C465.974 99.8592 470.37 100.5 474.922 100.5V94.5ZM463.556 92.8491C459.918 91.6574 457.272 90.2475 455.463 88.7125L451.581 93.2875C454.172 95.4858 457.592 97.2093 461.688 98.5509L463.556 92.8491ZM456.127 92.4884L459.327 86.8884L454.117 83.9116L450.917 89.5116L456.127 92.4884ZM454.865 87.7565C457.391 89.7467 460.48 91.3244 464.056 92.5403L465.988 86.8597C462.897 85.809 460.452 84.52 458.578 83.0435L454.865 87.7565ZM464.108 92.5573C467.745 93.7212 471.521 94.3 475.422 94.3V88.3C472.123 88.3 468.966 87.8121 465.936 86.8427L464.108 92.5573ZM475.422 94.3C480.408 94.3 484.651 93.5602 487.652 91.6187L484.392 86.5813C482.859 87.5732 480.035 88.3 475.422 88.3V94.3ZM487.669 91.6071C490.825 89.5334 492.522 86.4694 492.522 82.7H486.522C486.522 84.3973 485.885 85.5999 484.374 86.5929L487.669 91.6071ZM492.522 82.7C492.522 80.0464 491.614 77.6401 489.554 75.9053L485.689 80.4947C486.163 80.8932 486.522 81.487 486.522 82.7H492.522ZM489.622 75.9643C487.954 74.4715 485.919 73.4424 483.62 72.808L482.024 78.592C483.591 79.0243 484.757 79.6618 485.621 80.4357L489.622 75.9643ZM483.711 72.8348C481.595 72.178 478.88 71.5849 475.615 71.0408L474.629 76.9592C477.764 77.4818 480.182 78.022 481.933 78.5652L483.711 72.8348ZM475.675 71.0514C471.462 70.2615 468.152 69.4858 465.704 68.7327L463.94 74.4673C466.692 75.3142 470.248 76.1385 474.569 76.9486L475.675 71.0514ZM465.771 68.754C463.645 68.0453 461.839 66.8863 460.315 65.253L455.929 69.347C458.138 71.7137 460.799 73.4213 463.873 74.4461L465.771 68.754ZM460.352 65.2931C459.186 63.998 458.422 62.0295 458.422 59H452.422C452.422 63.0371 453.458 66.602 455.892 69.3069L460.352 65.2931ZM458.422 59C458.422 55.5868 459.777 52.8489 462.743 50.5843L459.101 45.8157C454.733 49.1511 452.422 53.6132 452.422 59H458.422ZM462.743 50.5843C465.708 48.3198 470.08 47 476.222 47V41C469.297 41 463.469 42.4802 459.101 45.8157L462.743 50.5843ZM476.222 47C479.344 47 482.477 47.428 485.628 48.293L487.216 42.507C483.567 41.5053 479.9 41 476.222 41V47ZM485.681 48.307C488.853 49.1157 491.315 50.1679 493.158 51.3961L496.486 46.4038C493.928 44.6988 490.791 43.4177 487.163 42.493L485.681 48.307ZM492.186 47.4667L489.086 53.1667L494.357 56.0333L497.457 50.3333L492.186 47.4667ZM493.43 52.1334C488.527 48.7394 482.745 47.1 476.222 47.1V53.1C481.699 53.1 486.25 54.4606 490.014 57.0666L493.43 52.1334ZM476.222 47.1C471.417 47.1 467.277 47.9334 464.225 50.0258L467.618 54.9742C469.234 53.8666 471.96 53.1 476.222 53.1V47.1ZM464.192 50.0491C461.192 52.1668 459.522 55.1507 459.522 58.8H465.522C465.522 57.2493 466.119 56.0332 467.652 54.9509L464.192 50.0491ZM459.522 58.8C459.522 61.4919 460.405 63.9266 462.359 65.7779L466.485 61.4221C465.906 60.8734 465.522 60.1081 465.522 58.8H459.522ZM462.415 65.8299C464.11 67.3551 466.139 68.4532 468.433 69.1652L470.211 63.4348C468.638 62.9468 467.401 62.2449 466.429 61.3701L462.415 65.8299ZM468.524 69.192C470.591 69.762 473.363 70.3478 476.801 70.9543L477.843 65.0456C474.48 64.4522 471.92 63.9046 470.12 63.408L468.524 69.192ZM476.761 70.947C480.905 71.7365 484.144 72.5108 486.518 73.2607L488.325 67.5393C485.633 66.6892 482.138 65.8635 477.883 65.053L476.761 70.947ZM486.518 73.2607C488.561 73.9057 490.281 74.9924 491.726 76.5443L496.118 72.4557C493.962 70.141 491.35 68.4943 488.325 67.5393L486.518 73.2607ZM491.726 76.5443C492.874 77.7769 493.622 79.6332 493.622 82.5H499.622C499.622 78.5668 498.57 75.0898 496.118 72.4557L491.726 76.5443ZM493.622 82.5C493.622 86.0924 492.189 88.8596 489.09 91.0503L492.554 95.9497C497.188 92.6738 499.622 88.1076 499.622 82.5H493.622ZM489.099 91.0443C485.988 93.227 481.378 94.5 474.922 94.5V100.5C482.066 100.5 488.055 99.1064 492.545 95.9557L489.099 91.0443ZM557.148 44.4H560.148V41.4H557.148V44.4ZM557.148 97V100H560.148V97H557.148ZM550.348 97H547.348V100H550.348V97ZM550.348 87.4H553.348V76.3032L547.756 85.8884L550.348 87.4ZM542.648 94.9L544.054 97.55L544.075 97.5389L544.095 97.5275L542.648 94.9ZM515.148 91.8L513.045 93.9394L513.063 93.9573L513.081 93.975L515.148 91.8ZM509.248 44.4V41.4H506.248V44.4H509.248ZM516.348 44.4H519.348V41.4H516.348V44.4ZM520.448 86.8L522.619 84.7298L520.448 86.8ZM545.248 86.1L547.412 88.1776L547.422 88.1669L547.432 88.1561L545.248 86.1ZM550.048 44.4V41.4H547.048V44.4H550.048ZM554.148 44.4V97H560.148V44.4H554.148ZM557.148 94H550.348V100H557.148V94ZM553.348 97V87.4H547.348V97H553.348ZM547.756 85.8884C546.165 88.6165 543.995 90.7324 541.2 92.2725L544.095 97.5275C547.834 95.4676 550.797 92.5835 552.939 88.9116L547.756 85.8884ZM541.242 92.25C538.464 93.7239 535.225 94.5 531.448 94.5V100.5C536.071 100.5 540.298 99.5428 544.054 97.55L541.242 92.25ZM531.448 94.5C525.153 94.5 520.528 92.7734 517.214 89.625L513.081 93.975C517.767 98.4266 524.009 100.5 531.448 100.5V94.5ZM517.251 89.6606C514.066 86.5301 512.248 81.7796 512.248 74.9H506.248C506.248 82.8204 508.362 89.3366 513.045 93.9394L517.251 89.6606ZM512.248 74.9V44.4H506.248V74.9H512.248ZM509.248 47.4H516.348V41.4H509.248V47.4ZM513.348 44.4V74.2H519.348V44.4H513.348ZM513.348 74.2C513.348 80.1956 514.831 85.2564 518.276 88.8702L522.619 84.7298C520.598 82.6103 519.348 79.271 519.348 74.2H513.348ZM518.276 88.8702C521.724 92.4855 526.502 94.1 532.148 94.1V88.1C527.66 88.1 524.638 86.8478 522.619 84.7298L518.276 88.8702ZM532.148 94.1C538.324 94.1 543.536 92.2149 547.412 88.1776L543.083 84.0224C540.559 86.6518 537.038 88.1 532.148 88.1V94.1ZM547.432 88.1561C551.293 84.0544 553.048 78.5383 553.048 72H547.048C547.048 77.4617 545.603 81.3456 543.063 84.0439L547.432 88.1561ZM553.048 72V44.4H547.048V72H553.048ZM550.048 47.4H557.148V41.4H550.048V47.4ZM611.233 49.2L609.172 51.3799L609.182 51.3899L609.193 51.3998L611.233 49.2ZM616.733 97V100H619.733V97H616.733ZM609.933 97H606.933V100H609.933V97ZM609.933 88.8H612.933V77.7365L607.344 87.2845L609.933 88.8ZM602.833 95.2L601.514 92.5053L601.503 92.511L601.491 92.5167L602.833 95.2ZM577.833 93.3L579.718 90.9662L577.833 93.3ZM577.433 71.4L575.508 69.0992L575.496 69.109L575.484 69.1189L577.433 71.4ZM609.633 67.3V70.3H612.633V67.3H609.633ZM605.833 53.8L603.77 55.9779L603.785 55.9924L603.8 56.0066L605.833 53.8ZM585.133 51.9L586.118 54.7335L586.146 54.724L586.173 54.714L585.133 51.9ZM577.233 56.4L574.665 57.9506L576.519 61.0214L579.213 58.6535L577.233 56.4ZM574.033 51.1L572.09 48.8142L570.146 50.4665L571.465 52.6506L574.033 51.1ZM583.633 45.9L584.551 48.7561L584.574 48.7487L584.597 48.7409L583.633 45.9ZM603.233 89.2L604.828 91.7407L604.849 91.7275L604.87 91.714L603.233 89.2ZM609.633 81.2L612.415 82.3234L612.633 81.7829V81.2H609.633ZM609.633 72.6H612.633V69.6H609.633V72.6ZM583.133 89.3L581.3 91.6753L581.322 91.692L581.344 91.7082L583.133 89.3ZM595.433 47C601.814 47 606.238 48.6057 609.172 51.3799L613.294 47.0201C608.895 42.8609 602.785 41 595.433 41V47ZM609.193 51.3998C612.057 54.0553 613.733 58.2001 613.733 64.4H619.733C619.733 57.1332 617.742 51.1447 613.273 47.0002L609.193 51.3998ZM613.733 64.4V97H619.733V64.4H613.733ZM616.733 94H609.933V100H616.733V94ZM612.933 97V88.8H606.933V97H612.933ZM607.344 87.2845C606.072 89.4571 604.173 91.2041 601.514 92.5053L604.151 97.8947C607.759 96.1292 610.594 93.6096 612.522 90.3155L607.344 87.2845ZM601.491 92.5167C598.93 93.7971 595.745 94.5 591.833 94.5V100.5C596.454 100.5 600.602 99.6696 604.174 97.8833L601.491 92.5167ZM591.833 94.5C586.434 94.5 582.502 93.2153 579.718 90.9662L575.948 95.6338C580.096 98.9847 585.499 100.5 591.833 100.5V94.5ZM579.718 90.9662C576.982 88.7567 575.633 85.9275 575.633 82.2H569.633C569.633 87.6725 571.75 92.2433 575.948 95.6338L579.718 90.9662ZM575.633 82.2C575.633 78.5496 576.894 75.8058 579.381 73.6811L575.484 69.1189C571.572 72.4608 569.633 76.9171 569.633 82.2H575.633ZM579.358 73.7008C581.828 71.6337 586.141 70.3 592.933 70.3V64.3C585.591 64.3 579.571 65.6996 575.508 69.0992L579.358 73.7008ZM592.933 70.3H609.633V64.3H592.933V70.3ZM612.633 67.3V64.1H606.633V67.3H612.633ZM612.633 64.1C612.633 59.007 611.194 54.6595 607.865 51.5934L603.8 56.0066C605.538 57.6072 606.633 60.1263 606.633 64.1H612.633ZM607.896 51.6221C604.618 48.5162 600.062 47.2 594.733 47.2V53.2C599.137 53.2 601.981 54.2838 603.77 55.9779L607.896 51.6221ZM594.733 47.2C591.052 47.2 587.499 47.8272 584.093 49.086L586.173 54.714C588.9 53.7061 591.747 53.2 594.733 53.2V47.2ZM584.147 49.0665C580.754 50.2466 577.774 51.931 575.252 54.1465L579.213 58.6535C581.092 57.0023 583.378 55.6867 586.118 54.7335L584.147 49.0665ZM579.801 54.8494L576.601 49.5494L571.465 52.6506L574.665 57.9506L579.801 54.8494ZM575.976 53.3858C578.307 51.4039 581.148 49.8498 584.551 48.7561L582.715 43.0439C578.651 44.3502 575.092 46.2628 572.09 48.8142L575.976 53.3858ZM584.597 48.7409C588.005 47.5846 591.611 47 595.433 47V41C590.988 41 586.728 41.682 582.669 43.0591L584.597 48.7409ZM592.933 94.9C597.393 94.9 601.402 93.8916 604.828 91.7407L601.638 86.6593C599.33 88.1084 596.472 88.9 592.933 88.9V94.9ZM604.87 91.714C608.299 89.4807 610.807 86.3044 612.415 82.3234L606.851 80.0766C605.659 83.029 603.899 85.1859 601.596 86.686L604.87 91.714ZM612.633 81.2V72.6H606.633V81.2H612.633ZM609.633 69.6H593.133V75.6H609.633V69.6ZM593.133 69.6C588.377 69.6 584.276 70.4111 581.294 72.488C578.113 74.7023 576.633 78.0473 576.633 82H582.633C582.633 79.686 583.402 78.331 584.722 77.412C586.239 76.3555 588.889 75.6 593.133 75.6V69.6ZM576.633 82C576.633 85.9526 578.197 89.281 581.3 91.6753L584.965 86.9247C583.402 85.719 582.633 84.1808 582.633 82H576.633ZM581.344 91.7082C584.379 93.9631 588.365 94.9 592.933 94.9V88.9C589.101 88.9 586.553 88.1036 584.922 86.8918L581.344 91.7082ZM636.017 22.8V19.8H633.017V22.8H636.017ZM643.117 22.8H646.117V19.8H643.117V22.8ZM643.117 97V100H646.117V97H643.117ZM636.017 97H633.017V100H636.017V97ZM636.017 25.8H643.117V19.8H636.017V25.8ZM640.117 22.8V97H646.117V22.8H640.117ZM643.117 94H636.017V100H643.117V94ZM639.017 97V22.8H633.017V97H639.017ZM662.873 44.4V41.4H659.873V44.4H662.873ZM669.973 44.4H672.973V41.4H669.973V44.4ZM669.973 97V100H672.973V97H669.973ZM662.873 97H659.873V100H662.873V97ZM662.773 24.3L660.651 22.1787V22.1787L662.773 24.3ZM670.173 24.3L668.051 26.4213L668.088 26.4579L668.126 26.4932L670.173 24.3ZM662.873 47.4H669.973V41.4H662.873V47.4ZM666.973 44.4V97H672.973V44.4H666.973ZM669.973 94H662.873V100H669.973V94ZM665.873 97V44.4H659.873V97H665.873ZM666.473 29.9C665.769 29.9 665.309 29.6932 664.894 29.2787L660.651 33.5213C662.237 35.1068 664.243 35.9 666.473 35.9V29.9ZM664.894 29.2787C664.45 28.8349 664.273 28.3953 664.273 27.8H658.273C658.273 30.0047 659.095 31.9651 660.651 33.5213L664.894 29.2787ZM664.273 27.8C664.273 27.3143 664.419 26.8966 664.894 26.4213L660.651 22.1787C659.127 23.7034 658.273 25.619 658.273 27.8H664.273ZM664.894 26.4213C665.309 26.0068 665.769 25.8 666.473 25.8V19.8C664.243 19.8 662.237 20.5932 660.651 22.1787L664.894 26.4213ZM666.473 25.8C667.177 25.8 667.637 26.0068 668.051 26.4213L672.294 22.1787C670.708 20.5932 668.702 19.8 666.473 19.8V25.8ZM668.126 26.4932C668.536 26.8758 668.673 27.2223 668.673 27.7H674.673C674.673 25.511 673.81 23.5909 672.22 22.1068L668.126 26.4932ZM668.673 27.7C668.673 28.404 668.466 28.8642 668.051 29.2787L672.294 33.5213C673.879 31.9358 674.673 29.9294 674.673 27.7H668.673ZM668.051 29.2787C667.637 29.6932 667.177 29.9 666.473 29.9V35.9C668.702 35.9 670.708 35.1068 672.294 33.5213L668.051 29.2787ZM726.828 91.1H729.828V88.1H726.828V91.1ZM726.828 97V100H729.828V97H726.828ZM684.028 97H681.028V100H684.028V97ZM684.028 92.3L681.674 90.4403L681.028 91.258V92.3H684.028ZM717.128 50.4L719.482 52.2597L723.321 47.4H717.128V50.4ZM684.628 50.4H681.628V53.4H684.628V50.4ZM684.628 44.4V41.4H681.628V44.4H684.628ZM726.228 44.4H729.228V41.4H726.228V44.4ZM726.228 49.1L728.584 50.9569L729.228 50.1401V49.1H726.228ZM693.128 91.1L690.772 89.2431L686.944 94.1H693.128V91.1ZM723.828 91.1V97H729.828V91.1H723.828ZM726.828 94H684.028V100H726.828V94ZM687.028 97V92.3H681.028V97H687.028ZM686.382 94.1597L719.482 52.2597L714.774 48.5403L681.674 90.4403L686.382 94.1597ZM717.128 47.4H684.628V53.4H717.128V47.4ZM687.628 50.4V44.4H681.628V50.4H687.628ZM684.628 47.4H726.228V41.4H684.628V47.4ZM723.228 44.4V49.1H729.228V44.4H723.228ZM723.872 47.2431L690.772 89.2431L695.484 92.9569L728.584 50.9569L723.872 47.2431ZM693.128 94.1H726.828V88.1H693.128V94.1ZM785.723 72.9V75.9H788.59L788.72 73.0362L785.723 72.9ZM741.723 72.9V69.9H738.496L738.731 73.1189L741.723 72.9ZM748.023 86.2L746.023 88.4357L746.034 88.4456L746.045 88.4553L748.023 86.2ZM771.423 89.5L772.572 92.2712L772.601 92.2594L772.629 92.2469L771.423 89.5ZM778.523 84.3L780.787 82.3315L778.54 79.747L776.274 82.3151L778.523 84.3ZM782.523 88.9L784.828 90.8206L786.463 88.8586L784.787 86.9315L782.523 88.9ZM773.723 95.3L772.573 92.5292L772.564 92.5331L772.555 92.5371L773.723 95.3ZM747.823 94.1L746.349 96.7125L746.374 96.7265L746.399 96.7401L747.823 94.1ZM738.123 84.5L735.521 85.993L738.123 84.5ZM737.923 56.9L735.303 55.4394L735.294 55.4559L735.285 55.4725L737.923 56.9ZM747.123 47.4L745.626 44.8007L745.616 44.8063L745.606 44.8119L747.123 47.4ZM773.423 47.4L774.941 44.8119L773.423 47.4ZM782.523 56.9L779.885 58.3275L779.89 58.3366L779.895 58.3458L782.523 56.9ZM785.823 70.7L788.82 70.8362L788.823 70.7681V70.7H785.823ZM747.523 55L749.58 57.1846L749.581 57.1834L747.523 55ZM741.723 67.6L738.735 67.3318L738.442 70.6H741.723V67.6ZM779.023 67.6V70.6H782.305L782.011 67.3318L779.023 67.6ZM773.123 55L771.045 57.1633L771.067 57.1841L771.089 57.2044L773.123 55ZM785.723 69.9H741.723V75.9H785.723V69.9ZM738.731 73.1189C739.184 79.297 741.598 84.4761 746.023 88.4357L750.024 83.9643C746.849 81.1239 745.063 77.4363 744.715 72.6811L738.731 73.1189ZM746.045 88.4553C750.473 92.339 756.01 94.2 762.423 94.2V88.2C757.237 88.2 753.174 86.7277 750.002 83.9447L746.045 88.4553ZM762.423 94.2C766.043 94.2 769.439 93.5706 772.572 92.2712L770.274 86.7288C767.941 87.6961 765.337 88.2 762.423 88.2V94.2ZM772.629 92.2469C775.767 90.8695 778.488 88.8741 780.773 86.2849L776.274 82.3151C774.559 84.2593 772.547 85.7305 770.217 86.7531L772.629 92.2469ZM776.26 86.2685L780.26 90.8685L784.787 86.9315L780.787 82.3315L776.26 86.2685ZM780.219 86.9794C778.211 89.3883 775.682 91.239 772.573 92.5292L774.874 98.0708C778.832 96.4277 782.169 94.0117 784.828 90.8206L780.219 86.9794ZM772.555 92.5371C769.498 93.8301 766.068 94.5 762.223 94.5V100.5C766.778 100.5 771.015 99.7032 774.892 98.0629L772.555 92.5371ZM762.223 94.5C757.255 94.5 752.956 93.4608 749.248 91.4599L746.399 96.7401C751.091 99.2726 756.392 100.5 762.223 100.5V94.5ZM749.298 91.4875C745.628 89.4158 742.787 86.5999 740.726 83.007L735.521 85.993C738.126 90.5334 741.752 94.1175 746.349 96.7125L749.298 91.4875ZM740.726 83.007C738.677 79.4371 737.623 75.3605 737.623 70.7H731.623C731.623 76.3061 732.903 81.4296 735.521 85.993L740.726 83.007ZM737.623 70.7C737.623 66.0091 738.625 61.909 740.562 58.3275L735.285 55.4725C732.822 60.0244 731.623 65.1242 731.623 70.7H737.623ZM740.544 58.3606C742.561 54.7425 745.254 51.9733 748.641 49.9881L745.606 44.8119C741.26 47.36 737.82 50.9242 735.303 55.4394L740.544 58.3606ZM748.621 49.9993C752.066 48.014 755.943 47 760.323 47V41C754.97 41 750.047 42.2526 745.626 44.8007L748.621 49.9993ZM760.323 47C764.704 47 768.539 48.0141 771.906 49.9881L774.941 44.8119C770.575 42.2526 765.676 41 760.323 41V47ZM771.906 49.9881C775.285 51.9685 777.937 54.7269 779.885 58.3275L785.162 55.4725C782.71 50.9398 779.296 47.3648 774.941 44.8119L771.906 49.9881ZM779.895 58.3458C781.819 61.8444 782.823 65.9343 782.823 70.7H788.823C788.823 65.0657 787.628 59.9556 785.152 55.4542L779.895 58.3458ZM782.827 70.5638L782.727 72.7638L788.72 73.0362L788.82 70.8362L782.827 70.5638ZM760.323 47.1C754.545 47.1 749.527 48.9899 745.466 52.8166L749.581 57.1834C752.453 54.4768 755.968 53.1 760.323 53.1V47.1ZM745.467 52.8154C741.468 56.5791 739.259 61.4934 738.735 67.3318L744.711 67.8682C745.121 63.3066 746.778 59.8209 749.58 57.1846L745.467 52.8154ZM741.723 70.6H779.023V64.6H741.723V70.6ZM782.011 67.3318C781.486 61.4759 779.232 56.5557 775.158 52.7956L771.089 57.2044C773.948 59.8443 775.628 63.3241 776.035 67.8682L782.011 67.3318ZM775.202 52.8367C771.191 48.9832 766.156 47.1 760.323 47.1V53.1C764.757 53.1 768.256 54.4835 771.045 57.1633L775.202 52.8367ZM848.275 22.8H851.275V19.8H848.275V22.8ZM848.275 97V100H851.275V97H848.275ZM841.475 97H838.475V100H841.475V97ZM841.475 86.6H844.475V75.8271L838.907 85.0494L841.475 86.6ZM832.975 94.7L831.574 92.0474L831.563 92.053L831.553 92.0586L832.975 94.7ZM807.775 94.1L809.254 91.4899L807.775 94.1ZM798.375 84.6L800.995 83.1394L798.375 84.6ZM798.375 56.8L800.995 58.2606L798.375 56.8ZM807.775 47.4L809.221 50.0286L809.237 50.0195L809.254 50.0101L807.775 47.4ZM832.675 46.7L831.271 49.3514L831.302 49.3677L831.333 49.3833L832.675 46.7ZM841.175 54.4L838.656 56.0298L844.175 64.5587V54.4H841.175ZM841.175 22.8V19.8H838.175V22.8H841.175ZM831.675 88.7L833.157 91.3084L833.166 91.303L833.176 91.2976L831.675 88.7ZM838.675 81.4L836.05 79.9478L836.038 79.9694L836.026 79.9912L838.675 81.4ZM838.675 60L836.026 61.4088L836.038 61.4306L836.05 61.4522L838.675 60ZM831.675 52.8L830.149 55.3828L830.183 55.4031L830.218 55.4225L831.675 52.8ZM811.675 52.8L813.157 55.4084L813.166 55.403L813.176 55.3976L811.675 52.8ZM804.675 60L802.05 58.5478L802.038 58.5694L802.026 58.5912L804.675 60ZM804.675 81.4L802.026 82.8088L802.038 82.8306L802.05 82.8522L804.675 81.4ZM811.675 88.7L810.149 91.2828L810.183 91.3031L810.218 91.3225L811.675 88.7ZM845.275 22.8V97H851.275V22.8H845.275ZM848.275 94H841.475V100H848.275V94ZM844.475 97V86.6H838.475V97H844.475ZM838.907 85.0494C837.045 88.1323 834.609 90.4439 831.574 92.0474L834.376 97.3526C838.408 95.2227 841.638 92.1343 844.043 88.1506L838.907 85.0494ZM831.553 92.0586C828.573 93.6633 825.138 94.5 821.175 94.5V100.5C826.012 100.5 830.444 99.4701 834.397 97.3414L831.553 92.0586ZM821.175 94.5C816.721 94.5 812.77 93.4824 809.254 91.4899L806.296 96.7101C810.78 99.2509 815.762 100.5 821.175 100.5V94.5ZM809.254 91.4899C805.739 89.4981 802.998 86.7319 800.995 83.1394L795.755 86.0606C798.286 90.6014 801.811 94.1686 806.296 96.7101L809.254 91.4899ZM800.995 83.1394C799.006 79.5697 797.975 75.4497 797.975 70.7H791.975C791.975 76.3503 793.211 81.497 795.755 86.0606L800.995 83.1394ZM797.975 70.7C797.975 65.9503 799.006 61.8303 800.995 58.2606L795.755 55.3394C793.211 59.903 791.975 65.0497 791.975 70.7H797.975ZM800.995 58.2606C802.994 54.6755 805.724 51.9516 809.221 50.0286L806.329 44.7714C801.826 47.2484 798.29 50.7912 795.755 55.3394L800.995 58.2606ZM809.254 50.0101C812.77 48.0176 816.721 47 821.175 47V41C815.762 41 810.78 42.2491 806.296 44.7899L809.254 50.0101ZM821.175 47C825.007 47 828.349 47.8044 831.271 49.3514L834.079 44.0486C830.201 41.9956 825.877 41 821.175 41V47ZM831.333 49.3833C834.299 50.8659 836.734 53.0587 838.656 56.0298L843.694 52.7702C841.216 48.9413 837.985 46.0007 834.017 44.0167L831.333 49.3833ZM844.175 54.4V22.8H838.175V54.4H844.175ZM841.175 25.8H848.275V19.8H841.175V25.8ZM821.775 94.2C825.915 94.2 829.733 93.2537 833.157 91.3084L830.193 86.0916C827.75 87.4796 824.969 88.2 821.775 88.2V94.2ZM833.176 91.2976C836.674 89.2761 839.4 86.4253 841.324 82.8088L836.026 79.9912C834.617 82.6413 832.676 84.6572 830.174 86.1024L833.176 91.2976ZM841.3 82.8522C843.307 79.2242 844.275 75.1474 844.275 70.7H838.275C838.275 74.2526 837.51 77.3092 836.05 79.9478L841.3 82.8522ZM844.275 70.7C844.275 66.2526 843.307 62.1758 841.3 58.5478L836.05 61.4522C837.51 64.0908 838.275 67.1474 838.275 70.7H844.275ZM841.324 58.5912C839.395 54.9652 836.656 52.1353 833.132 50.1775L830.218 55.4225C832.694 56.7981 834.622 58.7681 836.026 61.4088L841.324 58.5912ZM833.201 50.2172C829.77 48.19 825.936 47.2 821.775 47.2V53.2C824.947 53.2 827.713 53.9433 830.149 55.3828L833.201 50.2172ZM821.775 47.2C817.557 47.2 813.666 48.1851 810.174 50.2024L813.176 55.3976C815.684 53.9482 818.526 53.2 821.775 53.2V47.2ZM810.193 50.1916C806.75 52.1481 804.033 54.9621 802.05 58.5478L807.3 61.4522C808.783 58.7712 810.734 56.7853 813.157 55.4084L810.193 50.1916ZM802.026 58.5912C800.101 62.2109 799.175 66.2719 799.175 70.7H805.175C805.175 67.128 805.916 64.0558 807.324 61.4088L802.026 58.5912ZM799.175 70.7C799.175 75.128 800.101 79.1891 802.026 82.8088L807.324 79.9912C805.916 77.3442 805.175 74.2719 805.175 70.7H799.175ZM802.05 82.8522C804.028 86.4288 806.731 89.2632 810.149 91.2828L813.201 86.1172C810.752 84.6701 808.788 82.6379 807.3 79.9478L802.05 82.8522ZM810.218 91.3225C813.702 93.2581 817.578 94.2 821.775 94.2V88.2C818.505 88.2 815.648 87.4752 813.132 86.0775L810.218 91.3225Z" fill="black"/>
</mask>
<g mask="url(#mask0)">
<rect x="344" y="-123" width="528" height="439" fill="url(#paint0_linear)"/>
</g>
<defs>
<linearGradient id="paint0_linear" x1="767.5" y1="-49" x2="449.796" y2="224.654" gradientUnits="userSpaceOnUse">
<stop offset="0.0677083" stop-color="#FF0000"/>
<stop offset="0.198845" stop-color="#FF9900"/>
<stop offset="0.380208" stop-color="#8DFD71" stop-opacity="0.89"/>
<stop offset="0.58125" stop-color="#00B7B7" stop-opacity="0.65"/>
<stop offset="0.735461" stop-color="#0B22F3" stop-opacity="0.48"/>
<stop offset="0.827123" stop-color="#EB1FE3" stop-opacity="0.71"/>
<stop offset="0.9999" stop-color="#F01ADB" stop-opacity="0.9"/>
<stop offset="1" stop-color="#FB1515" stop-opacity="0"/>
</linearGradient>
</defs>
</svg>
